ffmpeg version 8.1.1 Copyright (c) 2000-2026 the FFmpeg developers
  built with Apple clang version 17.0.0 (clang-1700.6.4.2)
  configuration: --prefix=/opt/homebrew/Cellar/ffmpeg/8.1.1 --enable-shared --enable-pthreads --enable-version3 --cc=clang --host-cflags= --host-ldflags= --enable-ffplay --enable-gpl --enable-libsvtav1 --enable-libopus --enable-libx264 --enable-libmp3lame --enable-libdav1d --enable-libvmaf --enable-libvpx --enable-libx265 --enable-openssl --enable-videotoolbox --enable-audiotoolbox --enable-neon
  libavutil      60. 26.101 / 60. 26.101
  libavcodec     62. 28.101 / 62. 28.101
  libavformat    62. 12.101 / 62. 12.101
  libavdevice    62.  3.101 / 62.  3.101
  libavfilter    11. 14.101 / 11. 14.101
  libswscale      9.  5.101 /  9.  5.101
  libswresample   6.  3.101 /  6.  3.101
Input #0, mov,mp4,m4a,3gp,3g2,mj2, from 'data/art_rubric_runs/2026-06-04_122724/1a_combined.mp4':
  Metadata:
    major_brand     : isom
    minor_version   : 512
    compatible_brands: isomiso2avc1mp41
    encoder         : Lavf62.12.101
  Duration: 02:32:57.00, start: 0.000000, bitrate: 640 kb/s
  Stream #0:0[0x1](und): Video: h264 (High) (avc1 / 0x31637661), yuvj420p(pc, bt709, progressive), 1280x720, 602 kb/s, 25 fps, 25 tbr, 12800 tbn (default)
    Metadata:
      handler_name    : VideoHandler
      encoder         : Lavc62.28.101 libx264
  Stream #0:1[0x2](und): Audio: aac (LC) (mp4a / 0x6134706D), 8000 Hz, mono, fltp, 34 kb/s (default)
    Metadata:
      handler_name    : SoundHandler
Stream mapping:
  Stream #0:0 -> #0:0 (h264 (native) -> h264 (libx264))
  Stream #0:1 -> #0:1 (aac (native) -> aac (native))
Press [q] to stop, [?] for help
[aac @ 0x143652ed0] Too many bits 12288.000000 > 6144 per frame requested, clamping to max
[libx264 @ 0x143705500] using cpu capabilities: ARMv8 NEON DotProd I8MM
[libx264 @ 0x143705500] profile High, level 3.1, 4:2:0, 8-bit
[libx264 @ 0x143705500] 264 - core 165 r3222 b35605a - H.264/MPEG-4 AVC codec - Copyleft 2003-2025 - http://www.videolan.org/x264.html - options: cabac=1 ref=2 deblock=1:0:0 analyse=0x3:0x113 me=hex subme=6 psy=1 psy_rd=1.00:0.00 mixed_ref=1 me_range=16 chroma_me=1 trellis=1 8x8dct=1 cqm=0 deadzone=21,11 fast_pskip=1 chroma_qp_offset=-2 threads=12 lookahead_threads=2 sliced_threads=0 nr=0 decimate=1 interlaced=0 bluray_compat=0 constrained_intra=0 bframes=3 b_pyramid=2 b_adapt=1 b_bias=0 direct=1 weightb=1 open_gop=0 weightp=1 keyint=250 keyint_min=1 scenecut=40 intra_refresh=0 rc_lookahead=30 rc=crf mbtree=1 crf=23.0 qcomp=0.60 qpmin=0 qpmax=69 qpstep=4 ip_ratio=1.40 aq=1:1.00
Output #0, mp4, to 'data/art_rubric_runs/2026-06-04_122724/3_trimmed.mp4':
  Metadata:
    major_brand     : isom
    minor_version   : 512
    compatible_brands: isomiso2avc1mp41
    encoder         : Lavf62.12.101
  Stream #0:0(und): Video: h264 (avc1 / 0x31637661), yuvj420p(pc, bt709, progressive), 1280x720, q=2-31, 1 fps, 16384 tbn (default)
    Metadata:
      encoder         : Lavc62.28.101 libx264
      handler_name    : VideoHandler
    Side data:
      CPB properties: bitrate max/min/avg: 0/0/0 buffer size: 0 vbv_delay: N/A
  Stream #0:1(und): Audio: aac (LC) (mp4a / 0x6134706D), 8000 Hz, mono, fltp, 48 kb/s (default)
    Metadata:
      encoder         : Lavc62.28.101 aac
      handler_name    : SoundHandler
frame=   10 fps=0.0 q=17.0 size=    1024KiB time=00:00:08.00 bitrate=1048.6kbits/s speed=15.8x elapsed=0:00:00.50    frame=   51 fps= 51 q=17.0 size=    4352KiB time=00:00:49.00 bitrate= 727.6kbits/s speed=48.6x elapsed=0:00:01.00    frame=   90 fps= 60 q=17.0 size=    7936KiB time=00:01:28.00 bitrate= 738.8kbits/s speed=58.2x elapsed=0:00:01.51    frame=  132 fps= 65 q=17.0 size=   11520KiB time=00:02:10.00 bitrate= 725.9kbits/s speed=64.5x elapsed=0:00:02.01    frame=  176 fps= 70 q=17.0 size=   15360KiB time=00:02:54.00 bitrate= 723.2kbits/s speed=  69x elapsed=0:00:02.52    frame=  221 fps= 73 q=17.0 size=   18688KiB time=00:03:39.00 bitrate= 699.1kbits/s speed=72.4x elapsed=0:00:03.02    frame=  264 fps= 75 q=17.0 size=   22528KiB time=00:04:22.00 bitrate= 704.4kbits/s speed=74.2x elapsed=0:00:03.52    frame=  309 fps= 77 q=17.0 size=   26112KiB time=00:05:07.00 bitrate= 696.8kbits/s speed=76.1x elapsed=0:00:04.03    frame=  351 fps= 77 q=17.0 size=   29184KiB time=00:05:49.00 bitrate= 685.0kbits/s speed=76.9x elapsed=0:00:04.53    frame=  395 fps= 78 q=17.0 size=   33024KiB time=00:06:33.00 bitrate= 688.4kbits/s speed=77.9x elapsed=0:00:05.04    frame=  438 fps= 79 q=17.0 size=   36608KiB time=00:07:16.00 bitrate= 687.8kbits/s speed=78.6x elapsed=0:00:05.54    frame=  481 fps= 79 q=17.0 size=   40192KiB time=00:07:59.00 bitrate= 687.4kbits/s speed=79.1x elapsed=0:00:06.05    frame=  522 fps= 80 q=17.0 size=   43776KiB time=00:08:40.00 bitrate= 689.6kbits/s speed=79.3x elapsed=0:00:06.55    frame=  563 fps= 80 q=17.0 size=   47616KiB time=00:09:21.00 bitrate= 695.3kbits/s speed=79.4x elapsed=0:00:07.06    frame=  603 fps= 80 q=17.0 size=   50944KiB time=00:10:01.00 bitrate= 694.4kbits/s speed=79.4x elapsed=0:00:07.56    frame=  642 fps= 80 q=17.0 size=   54784KiB time=00:10:40.00 bitrate= 701.2kbits/s speed=79.3x elapsed=0:00:08.07    frame=  683 fps= 80 q=17.0 size=   58368KiB time=00:11:21.00 bitrate= 702.1kbits/s speed=79.4x elapsed=0:00:08.57    frame=  725 fps= 80 q=17.0 size=   62208KiB time=00:12:03.00 bitrate= 704.9kbits/s speed=79.6x elapsed=0:00:09.07    frame=  766 fps= 80 q=17.0 size=   66048KiB time=00:12:44.00 bitrate= 708.2kbits/s speed=79.7x elapsed=0:00:09.58    frame=  808 fps= 80 q=17.0 size=   69632KiB time=00:13:26.00 bitrate= 707.7kbits/s speed=79.9x elapsed=0:00:10.08    frame=  849 fps= 80 q=17.0 size=   73216KiB time=00:14:07.00 bitrate= 708.1kbits/s speed=  80x elapsed=0:00:10.58    frame=  891 fps= 80 q=17.0 size=   76800KiB time=00:14:49.00 bitrate= 707.7kbits/s speed=80.1x elapsed=0:00:11.09    frame=  932 fps= 80 q=17.0 size=   80384KiB time=00:15:30.00 bitrate= 708.1kbits/s speed=80.2x elapsed=0:00:11.59    frame=  972 fps= 80 q=17.0 size=   83968KiB time=00:16:10.00 bitrate= 709.1kbits/s speed=80.2x elapsed=0:00:12.09    frame= 1012 fps= 80 q=17.0 size=   87808KiB time=00:16:50.00 bitrate= 712.2kbits/s speed=80.2x elapsed=0:00:12.59    frame= 1056 fps= 81 q=17.0 size=   91648KiB time=00:17:34.00 bitrate= 712.3kbits/s speed=80.4x elapsed=0:00:13.10    frame= 1099 fps= 81 q=17.0 size=   94976KiB time=00:18:17.00 bitrate= 709.2kbits/s speed=80.6x elapsed=0:00:13.60    frame= 1142 fps= 81 q=17.0 size=   98560KiB time=00:19:00.00 bitrate= 708.2kbits/s speed=80.8x elapsed=0:00:14.11    frame= 1184 fps= 81 q=17.0 size=  102144KiB time=00:19:42.00 bitrate= 707.9kbits/s speed=80.9x elapsed=0:00:14.61    frame= 1227 fps= 81 q=17.0 size=  105728KiB time=00:20:25.00 bitrate= 707.0kbits/s speed=  81x elapsed=0:00:15.11    frame= 1269 fps= 81 q=17.0 size=  109568KiB time=00:21:07.00 bitrate= 708.4kbits/s speed=81.1x elapsed=0:00:15.62    frame= 1312 fps= 81 q=17.0 size=  113408KiB time=00:21:50.00 bitrate= 709.2kbits/s speed=81.2x elapsed=0:00:16.12    frame= 1354 fps= 81 q=17.0 size=  116736KiB time=00:22:32.00 bitrate= 707.3kbits/s speed=81.3x elapsed=0:00:16.62    frame= 1398 fps= 82 q=17.0 size=  120576KiB time=00:23:16.00 bitrate= 707.6kbits/s speed=81.5x elapsed=0:00:17.12    frame= 1441 fps= 82 q=17.0 size=  123904KiB time=00:23:59.00 bitrate= 705.4kbits/s speed=81.6x elapsed=0:00:17.63    frame= 1485 fps= 82 q=17.0 size=  127744KiB time=00:24:43.00 bitrate= 705.7kbits/s speed=81.8x elapsed=0:00:18.13    frame= 1528 fps= 82 q=17.0 size=  131328KiB time=00:25:26.00 bitrate= 705.0kbits/s speed=81.9x elapsed=0:00:18.63    frame= 1571 fps= 82 q=17.0 size=  134912KiB time=00:26:09.00 bitrate= 704.4kbits/s speed=  82x elapsed=0:00:19.14    frame= 1614 fps= 82 q=17.0 size=  138240KiB time=00:26:52.00 bitrate= 702.5kbits/s speed=82.1x elapsed=0:00:19.64    frame= 1658 fps= 82 q=17.0 size=  142080KiB time=00:27:36.00 bitrate= 702.9kbits/s speed=82.2x elapsed=0:00:20.14    frame= 1700 fps= 82 q=17.0 size=  145408KiB time=00:28:18.00 bitrate= 701.5kbits/s speed=82.2x elapsed=0:00:20.64    frame= 1734 fps= 82 q=17.0 size=  148224KiB time=00:28:52.00 bitrate= 701.1kbits/s speed=81.9x elapsed=0:00:21.15    frame= 1776 fps= 82 q=17.0 size=  152064KiB time=00:29:34.00 bitrate= 702.2kbits/s speed=81.9x elapsed=0:00:21.65    frame= 1819 fps= 82 q=17.0 size=  155648KiB time=00:30:17.00 bitrate= 701.7kbits/s speed=  82x elapsed=0:00:22.15    frame= 1861 fps= 82 q=17.0 size=  159232KiB time=00:30:59.00 bitrate= 701.7kbits/s speed=  82x elapsed=0:00:22.65    frame= 1904 fps= 82 q=17.0 size=  163072KiB time=00:31:42.00 bitrate= 702.4kbits/s speed=82.1x elapsed=0:00:23.16    frame= 1948 fps= 82 q=17.0 size=  166656KiB time=00:32:26.00 bitrate= 701.6kbits/s speed=82.2x elapsed=0:00:23.66    frame= 1990 fps= 82 q=14.0 size=  169984KiB time=00:33:08.00 bitrate= 700.5kbits/s speed=82.3x elapsed=0:00:24.16    frame= 2033 fps= 82 q=17.0 size=  173824KiB time=00:33:51.00 bitrate= 701.1kbits/s speed=82.3x elapsed=0:00:24.67    frame= 2078 fps= 83 q=17.0 size=  177664KiB time=00:34:36.00 bitrate= 701.1kbits/s speed=82.5x elapsed=0:00:25.17    frame= 2123 fps= 83 q=17.0 size=  180992KiB time=00:35:21.00 bitrate= 699.1kbits/s speed=82.6x elapsed=0:00:25.68    frame= 2167 fps= 83 q=17.0 size=  184576KiB time=00:36:05.00 bitrate= 698.4kbits/s speed=82.7x elapsed=0:00:26.18    frame= 2210 fps= 83 q=17.0 size=  188160KiB time=00:36:48.00 bitrate= 698.1kbits/s speed=82.7x elapsed=0:00:26.68    frame= 2252 fps= 83 q=17.0 size=  192000KiB time=00:37:30.00 bitrate= 699.1kbits/s speed=82.7x elapsed=0:00:27.19    frame= 2296 fps= 83 q=17.0 size=  195584KiB time=00:38:14.00 bitrate= 698.4kbits/s speed=82.8x elapsed=0:00:27.69    frame= 2339 fps= 83 q=17.0 size=  199168KiB time=00:38:57.00 bitrate= 698.2kbits/s speed=82.9x elapsed=0:00:28.20    frame= 2381 fps= 83 q=17.0 size=  202752KiB time=00:39:39.00 bitrate= 698.2kbits/s speed=82.9x elapsed=0:00:28.70    frame= 2421 fps= 83 q=17.0 size=  206080KiB time=00:40:19.00 bitrate= 697.9kbits/s speed=82.8x elapsed=0:00:29.20    frame= 2461 fps= 83 q=17.0 size=  209664KiB time=00:40:59.00 bitrate= 698.5kbits/s speed=82.8x elapsed=0:00:29.71    frame= 2503 fps= 83 q=17.0 size=  213504KiB time=00:41:41.00 bitrate= 699.3kbits/s speed=82.8x elapsed=0:00:30.21    frame= 2549 fps= 83 q=17.0 size=  217088KiB time=00:42:27.00 bitrate= 698.2kbits/s speed=82.9x elapsed=0:00:30.71    frame= 2593 fps= 83 q=17.0 size=  220672KiB time=00:43:11.00 bitrate= 697.7kbits/s speed=  83x elapsed=0:00:31.22    frame= 2639 fps= 83 q=17.0 size=  224256KiB time=00:43:57.00 bitrate= 696.7kbits/s speed=83.1x elapsed=0:00:31.72    frame= 2682 fps= 83 q=17.0 size=  227840KiB time=00:44:40.00 bitrate= 696.4kbits/s speed=83.1x elapsed=0:00:32.23    frame= 2727 fps= 83 q=17.0 size=  231424KiB time=00:45:25.00 bitrate= 695.7kbits/s speed=83.2x elapsed=0:00:32.73    frame= 2770 fps= 83 q=17.0 size=  235008KiB time=00:46:08.00 bitrate= 695.5kbits/s speed=83.3x elapsed=0:00:33.23    frame= 2816 fps= 83 q=17.0 size=  238848KiB time=00:46:54.00 bitrate= 695.3kbits/s speed=83.4x elapsed=0:00:33.74    frame= 2860 fps= 84 q=17.0 size=  242176KiB time=00:47:38.00 bitrate= 694.2kbits/s speed=83.5x elapsed=0:00:34.24    frame= 2905 fps= 84 q=17.0 size=  245760KiB time=00:48:23.00 bitrate= 693.5kbits/s speed=83.6x elapsed=0:00:34.74    frame= 2949 fps= 84 q=17.0 size=  249344KiB time=00:49:07.00 bitrate= 693.1kbits/s speed=83.6x elapsed=0:00:35.24    frame= 2993 fps= 84 q=17.0 size=  252928KiB time=00:49:51.00 bitrate= 692.7kbits/s speed=83.7x elapsed=0:00:35.74    frame= 3038 fps= 84 q=17.0 size=  256768KiB time=00:50:36.00 bitrate= 692.8kbits/s speed=83.7x elapsed=0:00:36.25    frame= 3083 fps= 84 q=17.0 size=  260096KiB time=00:51:21.00 bitrate= 691.6kbits/s speed=83.8x elapsed=0:00:36.75    frame= 3129 fps= 84 q=17.0 size=  263680KiB time=00:52:07.00 bitrate= 690.8kbits/s speed=83.9x elapsed=0:00:37.25    frame= 3174 fps= 84 q=17.0 size=  267264KiB time=00:52:52.00 bitrate= 690.2kbits/s speed=  84x elapsed=0:00:37.76    frame= 3217 fps= 84 q=17.0 size=  270592KiB time=00:53:35.00 bitrate= 689.5kbits/s speed=  84x elapsed=0:00:38.26    frame= 3256 fps= 84 q=17.0 size=  273920KiB time=00:54:14.00 bitrate= 689.6kbits/s speed=83.9x elapsed=0:00:38.76    frame= 3297 fps= 84 q=17.0 size=  278016KiB time=00:54:55.00 bitrate= 691.2kbits/s speed=83.9x elapsed=0:00:39.27    frame= 3338 fps= 84 q=17.0 size=  281600KiB time=00:55:36.00 bitrate= 691.5kbits/s speed=83.9x elapsed=0:00:39.77    frame= 3379 fps= 84 q=17.0 size=  285184KiB time=00:56:17.00 bitrate= 691.8kbits/s speed=83.9x elapsed=0:00:40.27    frame= 3420 fps= 84 q=17.0 size=  288768KiB time=00:56:58.00 bitrate= 692.1kbits/s speed=83.8x elapsed=0:00:40.77    frame= 3461 fps= 84 q=17.0 size=  292608KiB time=00:57:39.00 bitrate= 693.0kbits/s speed=83.8x elapsed=0:00:41.28    frame= 3502 fps= 84 q=17.0 size=  296448KiB time=00:58:20.00 bitrate= 693.9kbits/s speed=83.8x elapsed=0:00:41.78    frame= 3543 fps= 84 q=17.0 size=  300288KiB time=00:59:01.00 bitrate= 694.7kbits/s speed=83.7x elapsed=0:00:42.28    frame= 3584 fps= 84 q=17.0 size=  303360KiB time=00:59:42.00 bitrate= 693.8kbits/s speed=83.7x elapsed=0:00:42.79    frame= 3622 fps= 84 q=17.0 size=  307456KiB time=01:00:20.00 bitrate= 695.8kbits/s speed=83.6x elapsed=0:00:43.29    frame= 3660 fps= 84 q=17.0 size=  311296KiB time=01:00:58.00 bitrate= 697.1kbits/s speed=83.5x elapsed=0:00:43.80    frame= 3697 fps= 83 q=17.0 size=  315136KiB time=01:01:35.00 bitrate= 698.7kbits/s speed=83.4x elapsed=0:00:44.30    frame= 3735 fps= 83 q=17.0 size=  319232KiB time=01:02:13.00 bitrate= 700.5kbits/s speed=83.3x elapsed=0:00:44.80    frame= 3775 fps= 83 q=17.0 size=  323328KiB time=01:02:53.00 bitrate= 702.0kbits/s speed=83.3x elapsed=0:00:45.30    frame= 3818 fps= 83 q=17.0 size=  327168KiB time=01:03:36.00 bitrate= 702.3kbits/s speed=83.3x elapsed=0:00:45.81    frame= 3861 fps= 83 q=17.0 size=  330752KiB time=01:04:19.00 bitrate= 702.1kbits/s speed=83.3x elapsed=0:00:46.31    frame= 3905 fps= 83 q=17.0 size=  334592KiB time=01:05:03.00 bitrate= 702.3kbits/s speed=83.4x elapsed=0:00:46.81    frame= 3949 fps= 83 q=17.0 size=  338176KiB time=01:05:47.00 bitrate= 701.9kbits/s speed=83.4x elapsed=0:00:47.32    frame= 3993 fps= 83 q=17.0 size=  341760KiB time=01:06:31.00 bitrate= 701.5kbits/s speed=83.4x elapsed=0:00:47.82    frame= 4036 fps= 84 q=17.0 size=  345600KiB time=01:07:14.00 bitrate= 701.8kbits/s speed=83.5x elapsed=0:00:48.32    frame= 4079 fps= 84 q=17.0 size=  349184KiB time=01:07:57.00 bitrate= 701.6kbits/s speed=83.5x elapsed=0:00:48.83    frame= 4120 fps= 84 q=17.0 size=  353024KiB time=01:08:38.00 bitrate= 702.3kbits/s speed=83.5x elapsed=0:00:49.33    frame= 4161 fps= 83 q=17.0 size=  356608KiB time=01:09:19.00 bitrate= 702.4kbits/s speed=83.4x elapsed=0:00:49.84    frame= 4200 fps= 83 q=17.0 size=  360192KiB time=01:09:58.00 bitrate= 702.9kbits/s speed=83.4x elapsed=0:00:50.34    frame= 4238 fps= 83 q=17.0 size=  364032KiB time=01:10:36.00 bitrate= 704.0kbits/s speed=83.3x elapsed=0:00:50.84    frame= 4279 fps= 83 q=17.0 size=  368384KiB time=01:11:17.00 bitrate= 705.6kbits/s speed=83.3x elapsed=0:00:51.35    frame= 4319 fps= 83 q=17.0 size=  371968KiB time=01:11:57.00 bitrate= 705.9kbits/s speed=83.3x elapsed=0:00:51.85    frame= 4358 fps= 83 q=17.0 size=  375552KiB time=01:12:36.00 bitrate= 706.3kbits/s speed=83.2x elapsed=0:00:52.35    frame= 4398 fps= 83 q=17.0 size=  379904KiB time=01:13:16.00 bitrate= 708.0kbits/s speed=83.2x elapsed=0:00:52.85    frame= 4442 fps= 83 q=17.0 size=  383488KiB time=01:14:00.00 bitrate= 707.6kbits/s speed=83.2x elapsed=0:00:53.36    frame= 4487 fps= 83 q=17.0 size=  387328KiB time=01:14:45.00 bitrate= 707.5kbits/s speed=83.3x elapsed=0:00:53.86    frame= 4531 fps= 83 q=17.0 size=  391168KiB time=01:15:29.00 bitrate= 707.5kbits/s speed=83.3x elapsed=0:00:54.37    frame= 4576 fps= 83 q=17.0 size=  394752KiB time=01:16:14.00 bitrate= 707.0kbits/s speed=83.4x elapsed=0:00:54.87    frame= 4621 fps= 83 q=17.0 size=  398080KiB time=01:16:59.00 bitrate= 706.0kbits/s speed=83.4x elapsed=0:00:55.37    frame= 4666 fps= 84 q=17.0 size=  401664KiB time=01:17:44.00 bitrate= 705.5kbits/s speed=83.5x elapsed=0:00:55.87    frame= 4711 fps= 84 q=17.0 size=  405248KiB time=01:18:29.00 bitrate= 705.0kbits/s speed=83.5x elapsed=0:00:56.38    frame= 4756 fps= 84 q=17.0 size=  408832KiB time=01:19:14.00 bitrate= 704.5kbits/s speed=83.6x elapsed=0:00:56.88    frame= 4800 fps= 84 q=17.0 size=  412672KiB time=01:19:58.00 bitrate= 704.6kbits/s speed=83.6x elapsed=0:00:57.38    frame= 4845 fps= 84 q=17.0 size=  416256KiB time=01:20:43.00 bitrate= 704.1kbits/s speed=83.7x elapsed=0:00:57.88    frame= 4890 fps= 84 q=17.0 size=  419840KiB time=01:21:28.00 bitrate= 703.6kbits/s speed=83.7x elapsed=0:00:58.39    frame= 4936 fps= 84 q=17.0 size=  423424KiB time=01:22:14.00 bitrate= 703.0kbits/s speed=83.8x elapsed=0:00:58.89    frame= 4980 fps= 84 q=17.0 size=  427008KiB time=01:22:58.00 bitrate= 702.7kbits/s speed=83.8x elapsed=0:00:59.39    frame= 5025 fps= 84 q=17.0 size=  430592KiB time=01:23:43.00 bitrate= 702.3kbits/s speed=83.9x elapsed=0:00:59.90    frame= 5070 fps= 84 q=17.0 size=  434432KiB time=01:24:28.00 bitrate= 702.2kbits/s speed=83.9x elapsed=0:01:00.40    frame= 5114 fps= 84 q=17.0 size=  438016KiB time=01:25:12.00 bitrate= 701.9kbits/s speed=83.9x elapsed=0:01:00.90    frame= 5159 fps= 84 q=17.0 size=  441344KiB time=01:25:57.00 bitrate= 701.1kbits/s speed=  84x elapsed=0:01:01.41    frame= 5203 fps= 84 q=17.0 size=  444928KiB time=01:26:41.00 bitrate= 700.8kbits/s speed=  84x elapsed=0:01:01.91    frame= 5248 fps= 84 q=17.0 size=  448512KiB time=01:27:26.00 bitrate= 700.4kbits/s speed=  84x elapsed=0:01:02.41    frame= 5292 fps= 84 q=17.0 size=  452352KiB time=01:28:10.00 bitrate= 700.5kbits/s speed=84.1x elapsed=0:01:02.91    frame= 5337 fps= 84 q=17.0 size=  455936KiB time=01:28:55.00 bitrate= 700.1kbits/s speed=84.1x elapsed=0:01:03.42    frame= 5382 fps= 84 q=17.0 size=  459264KiB time=01:29:40.00 bitrate= 699.3kbits/s speed=84.2x elapsed=0:01:03.92    frame= 5427 fps= 84 q=17.0 size=  462848KiB time=01:30:25.00 bitrate= 698.9kbits/s speed=84.2x elapsed=0:01:04.43    frame= 5471 fps= 84 q=17.0 size=  466432KiB time=01:31:09.00 bitrate= 698.7kbits/s speed=84.2x elapsed=0:01:04.93    frame= 5516 fps= 84 q=17.0 size=  470272KiB time=01:31:54.00 bitrate= 698.7kbits/s speed=84.3x elapsed=0:01:05.44    frame= 5560 fps= 84 q=17.0 size=  473856KiB time=01:32:38.00 bitrate= 698.4kbits/s speed=84.3x elapsed=0:01:05.94    frame= 5602 fps= 84 q=17.0 size=  477440KiB time=01:33:20.00 bitrate= 698.4kbits/s speed=84.3x elapsed=0:01:06.44    frame= 5647 fps= 84 q=17.0 size=  481024KiB time=01:34:05.00 bitrate= 698.1kbits/s speed=84.3x elapsed=0:01:06.95    frame= 5690 fps= 84 q=17.0 size=  484608KiB time=01:34:48.00 bitrate= 697.9kbits/s speed=84.3x elapsed=0:01:07.45    frame= 5733 fps= 84 q=17.0 size=  487936KiB time=01:35:31.00 bitrate= 697.5kbits/s speed=84.3x elapsed=0:01:07.95    frame= 5777 fps= 84 q=17.0 size=  492032KiB time=01:36:15.00 bitrate= 698.0kbits/s speed=84.4x elapsed=0:01:08.46    frame= 5821 fps= 84 q=17.0 size=  495360KiB time=01:36:59.00 bitrate= 697.4kbits/s speed=84.4x elapsed=0:01:08.96    frame= 5866 fps= 84 q=17.0 size=  498944KiB time=01:37:44.00 bitrate= 697.0kbits/s speed=84.4x elapsed=0:01:09.47    frame= 5910 fps= 84 q=17.0 size=  502528KiB time=01:38:28.00 bitrate= 696.8kbits/s speed=84.4x elapsed=0:01:09.97    frame= 5953 fps= 84 q=17.0 size=  506112KiB time=01:39:11.00 bitrate= 696.7kbits/s speed=84.4x elapsed=0:01:10.47    frame= 5998 fps= 85 q=17.0 size=  509696KiB time=01:39:56.00 bitrate= 696.4kbits/s speed=84.5x elapsed=0:01:10.98    frame= 6042 fps= 85 q=17.0 size=  513536KiB time=01:40:40.00 bitrate= 696.5kbits/s speed=84.5x elapsed=0:01:11.48    frame= 6085 fps= 85 q=17.0 size=  516864KiB time=01:41:23.00 bitrate= 696.1kbits/s speed=84.5x elapsed=0:01:11.98    frame= 6129 fps= 85 q=17.0 size=  520448KiB time=01:42:07.00 bitrate= 695.9kbits/s speed=84.5x elapsed=0:01:12.48    frame= 6172 fps= 85 q=17.0 size=  524032KiB time=01:42:50.00 bitrate= 695.8kbits/s speed=84.5x elapsed=0:01:12.98    frame= 6216 fps= 85 q=17.0 size=  527616KiB time=01:43:34.00 bitrate= 695.6kbits/s speed=84.6x elapsed=0:01:13.48    frame= 6260 fps= 85 q=17.0 size=  531712KiB time=01:44:18.00 bitrate= 696.0kbits/s speed=84.6x elapsed=0:01:13.99    frame= 6304 fps= 85 q=17.0 size=  535296KiB time=01:45:02.00 bitrate= 695.8kbits/s speed=84.6x elapsed=0:01:14.49    frame= 6348 fps= 85 q=17.0 size=  538880KiB time=01:45:46.00 bitrate= 695.6kbits/s speed=84.6x elapsed=0:01:15.00    frame= 6389 fps= 85 q=17.0 size=  541952KiB time=01:46:27.00 bitrate= 695.1kbits/s speed=84.6x elapsed=0:01:15.50    frame= 6428 fps= 85 q=17.0 size=  546048KiB time=01:47:06.00 bitrate= 696.1kbits/s speed=84.5x elapsed=0:01:16.00    frame= 6470 fps= 85 q=17.0 size=  549632KiB time=01:47:48.00 bitrate= 696.1kbits/s speed=84.5x elapsed=0:01:16.50    [mp4 @ 0x143704a40] Starting second pass: moving the moov atom to the beginning of the file
[out#0/mp4 @ 0x600000edc180] video:526044KiB audio:28351KiB subtitle:0KiB other streams:0KiB global headers:0KiB muxing overhead: 0.069735%
frame= 6524 fps= 85 q=-1.0 Lsize=  554781KiB time=01:48:42.00 bitrate= 696.8kbits/s speed=84.5x elapsed=0:01:17.19    
[libx264 @ 0x143705500] frame I:27    Avg QP: 9.60  size:403855
[libx264 @ 0x143705500] frame P:1644  Avg QP:12.64  size:197800
[libx264 @ 0x143705500] frame B:4853  Avg QP:18.16  size: 41744
[libx264 @ 0x143705500] consecutive B-frames:  0.8%  0.0%  0.0% 99.1%
[libx264 @ 0x143705500] mb I  I16..4:  3.4% 24.3% 72.3%
[libx264 @ 0x143705500] mb P  I16..4:  1.3%  5.3%  6.7%  P16..4: 34.2% 24.4% 24.7%  0.0%  0.0%    skip: 3.3%
[libx264 @ 0x143705500] mb B  I16..4:  0.1%  0.3%  1.2%  B16..8: 22.7% 15.0% 12.1%  direct:13.9%  skip:34.7%  L0:47.3% L1:36.8% BI:15.9%
[libx264 @ 0x143705500] 8x8 transform intra:33.4% inter:33.4%
[libx264 @ 0x143705500] coded y,uvDC,uvAC intra: 88.5% 78.5% 62.1% inter: 40.8% 42.6% 14.0%
[libx264 @ 0x143705500] i16 v,h,dc,p: 20% 16% 12% 52%
[libx264 @ 0x143705500] i8 v,h,dc,ddl,ddr,vr,hd,vl,hu: 19% 13% 18%  3% 13% 11% 13%  4%  6%
[libx264 @ 0x143705500] i4 v,h,dc,ddl,ddr,vr,hd,vl,hu: 22% 12% 15%  4% 13% 11% 11%  6%  7%
[libx264 @ 0x143705500] i8c dc,h,v,p: 50% 20% 23%  7%
[libx264 @ 0x143705500] Weighted P-Frames: Y:4.1% UV:0.4%
[libx264 @ 0x143705500] ref P L0: 73.7% 26.3%
[libx264 @ 0x143705500] ref B L0: 92.0%  8.0%
[libx264 @ 0x143705500] ref B L1: 97.3%  2.7%
[libx264 @ 0x143705500] kb/s:660.54
[aac @ 0x143652ed0] Qavg: 65515.789
